<?xml version="1.0" standalone="no"?>
<!DOCTYPE svg PUBLIC "-//W3C//DTD SVG 20010904//EN"
 "http://www.w3.org/TR/2001/REC-SVG-20010904/DTD/svg10.dtd">
<svg version="1.0" xmlns="http://www.w3.org/2000/svg"
 width="1280.000000pt" height="1270.000000pt" viewBox="0 0 1280.000000 1270.000000"
 preserveAspectRatio="xMidYMid meet">
<metadata>
Created by potrace 1.15, written by Peter Selinger 2001-2017
</metadata>
<g transform="translate(0.000000,1270.000000) scale(0.100000,-0.100000)"
fill="#fff" stroke="none">
<path d="M6170 12694 c-185 -10 -514 -42 -825 -80 -471 -57 -1091 -268 -1760
-599 -271 -134 -443 -233 -695 -400 -479 -317 -786 -559 -1060 -834 -125 -126
-300 -330 -300 -351 0 -4 -46 -62 -103 -128 -112 -131 -142 -172 -317 -439
-338 -516 -556 -946 -737 -1453 -190 -533 -299 -1041 -355 -1655 -16 -184 -17
-787 0 -970 82 -900 289 -1618 691 -2400 479 -932 1195 -1730 2074 -2314 167
-111 322 -206 462 -281 44 -24 100 -58 125 -76 64 -46 211 -118 302 -148 43
-14 132 -49 199 -76 1451 -607 3124 -648 4622 -116 360 128 816 342 1137 533
652 389 1379 1000 1691 1423 246 333 325 444 424 593 371 566 624 1122 825
1815 140 485 184 749 216 1282 33 562 -3 1119 -107 1635 -175 869 -526 1681
-1038 2400 -904 1271 -2243 2151 -3791 2494 -252 56 -522 97 -827 127 -149 14
-708 26 -853 18z m472 -186 c105 -11 137 -28 55 -28 -23 0 -88 -7 -145 -14
l-103 -14 -62 27 c-123 54 -123 52 18 46 72 -3 178 -10 237 -17z m-599 -60
c70 -17 127 -35 127 -38 0 -3 -43 -14 -95 -24 -250 -46 -619 -145 -922 -246
-83 -27 -157 -50 -163 -50 -14 0 -140 73 -140 81 0 8 260 117 397 165 231 82
547 157 623 149 25 -3 102 -19 173 -37z m-1123 -91 c-14 -6 -75 -34 -135 -62
-100 -47 -113 -51 -142 -41 -17 6 -34 14 -37 17 -3 3 65 26 152 51 155 45 211
58 162 35z m2398 -11 c39 -14 124 -49 188 -80 134 -63 142 -54 -81 -81 -152
-18 -334 -48 -460 -76 -49 -10 -94 -19 -101 -19 -7 0 -25 21 -40 48 -15 26
-61 81 -102 124 l-74 76 64 7 c132 14 278 22 404 24 114 1 139 -2 202 -23z
m492 -6 c186 -19 652 -108 670 -127 3 -3 -20 -3 -50 1 -30 3 -169 9 -308 12
l-253 7 -97 53 c-130 71 -134 74 -97 69 17 -2 77 -9 135 -15z m-1341 -57 c81
-46 160 -113 203 -169 22 -30 39 -56 37 -57 -2 -2 -85 -25 -184 -52 -99 -26
-261 -74 -360 -105 -180 -58 -180 -58 -340 -64 -88 -3 -233 -11 -323 -18
l-163 -11 -42 40 c-23 22 -68 61 -100 88 -32 26 -54 52 -50 56 11 10 291 97
477 148 182 50 412 102 606 136 80 14 152 27 160 29 29 7 34 6 79 -21z m-2001
-129 c19 -5 9 -14 -65 -58 -134 -79 -339 -215 -484 -321 -71 -52 -132 -95
-135 -95 -6 0 39 79 89 155 118 178 256 283 412 315 49 10 152 12 183 4z m304
-103 l49 -28 -63 -23 c-100 -37 -473 -193 -582 -244 -55 -25 -101 -45 -103
-42 -9 9 369 250 517 330 95 51 103 52 182 7z m3193 -44 c130 -87 271 -196
409 -318 127 -112 185 -169 172 -169 -4 0 -54 13 -110 29 -378 110 -853 202
-1271 246 -82 8 -174 18 -202 21 -52 5 -53 6 -53 37 0 18 -3 48 -6 67 l-6 36
89 17 c359 72 819 127 868 104 11 -6 61 -37 110 -70z m555 58 c332 -41 617
-123 890 -256 110 -54 130 -68 168 -116 96 -120 170 -266 206 -408 16 -62 42
-282 35 -290 -3 -2 -84 36 -181 86 -203 103 -439 207 -647 285 l-144 54 -146
149 c-190 193 -377 355 -581 504 -24 17 -21 18 125 13 83 -3 206 -13 275 -21z
m-4746 -127 c-5 -7 -21 -31 -36 -54 -37 -55 -142 -266 -164 -331 -16 -46 -23
-54 -51 -59 -17 -3 -39 -14 -48 -24 -15 -16 -20 -15 -107 17 -50 19 -132 43
-182 54 -50 11 -95 21 -100 22 -18 6 378 233 619 356 66 33 80 37 69 19z
m1229 -30 c53 -36 147 -113 147 -119 0 -3 -37 -9 -82 -13 -101 -8 -524 -70
-654 -95 -52 -10 -94 -16 -94 -14 0 9 613 259 643 262 5 1 23 -9 40 -21z
m1765 -37 l3 -44 -83 6 c-46 4 -114 7 -152 7 -38 0 -67 2 -65 5 10 9 255 74
274 72 16 -2 21 -11 23 -46z m-185 -170 c93 -5 171 -11 173 -14 10 -10 -58
-193 -102 -276 -76 -143 -207 -325 -335 -464 l-44 -48 -107 37 -106 37 -49 66
c-76 105 -233 299 -327 406 -74 84 -84 100 -70 108 9 5 105 43 213 83 l196 73
195 0 c107 0 271 -4 363 -8z m-1048 -31 c-28 -12 -55 -12 -55 0 0 6 17 10 38
9 30 0 33 -2 17 -9z m1695 -21 c442 -52 905 -149 1312 -274 237 -72 207 -54
326 -198 196 -236 385 -509 559 -806 40 -69 70 -127 67 -130 -3 -3 -60 -13
-127 -23 -253 -36 -742 -145 -1039 -231 l-117 -34 -163 100 c-480 296 -1113
607 -1558 767 -36 13 -67 25 -69 26 -2 2 30 43 71 91 195 230 327 453 379 641
12 42 23 83 25 91 5 15 67 12 334 -20z m-1905 -19 c16 -16 27 -31 24 -33 -2
-3 -74 -35 -159 -72 -85 -37 -229 -103 -319 -146 l-164 -79 -126 20 c-178 27
-447 57 -644 72 -93 6 -160 15 -150 19 32 12 392 87 588 123 220 40 483 80
699 106 215 26 217 25 251 -10z m4643 -197 c286 -237 622 -610 839 -933 55
-83 183 -287 183 -294 0 -2 -15 0 -34 4 -22 5 -78 43 -153 107 -222 186 -492
378 -741 530 l-107 64 -2 120 c-3 170 -44 364 -99 472 -8 15 -12 27 -9 27 4 0
59 -44 123 -97z m-4353 -118 c120 -142 224 -269 221 -272 -1 -1 -31 7 -66 18
-106 33 -515 135 -660 164 -74 15 -142 29 -149 32 -16 4 145 82 358 174 l136
58 33 -32 c19 -18 76 -81 127 -142z m-2387 74 c45 -13 82 -26 82 -30 0 -3 -26
-12 -57 -19 -32 -7 -152 -43 -268 -81 -115 -38 -211 -69 -211 -69 -1 0 2 18 7
41 20 89 70 150 144 178 48 18 209 7 303 -20z m-592 -190 l-11 -71 -105 -47
c-58 -26 -139 -64 -180 -84 l-75 -37 59 53 c72 64 309 256 317 257 3 0 1 -32
-5 -71z m1657 20 c108 -13 197 -26 197 -31 0 -4 -4 -8 -9 -8 -5 0 -72 -34
-148 -75 -76 -42 -161 -88 -189 -102 l-52 -26 -148 137 c-82 76 -150 141 -152
145 -3 9 241 -11 501 -40z m-574 -86 c53 -47 130 -119 172 -158 l76 -73 -41
-23 c-22 -12 -117 -69 -210 -126 l-169 -103 7 108 c11 189 49 462 63 462 3 0
49 -39 102 -87z m5478 3 c147 -63 462 -216 558 -271 28 -16 51 -29 52 -30 7
-3 -53 -241 -77 -305 -44 -120 -91 -230 -99 -230 -4 0 -13 12 -20 28 -64 140
-395 641 -544 825 -21 26 -34 47 -29 47 6 0 77 -29 159 -64z m-5753 -76 c-12
-84 -20 -170 -40 -437 l-6 -71 -111 -74 c-62 -40 -156 -103 -209 -140 -54 -38
-102 -68 -108 -68 -32 0 18 107 193 415 89 157 287 478 292 473 1 -2 -4 -46
-11 -98z m1436 70 c283 -51 708 -155 993 -243 l108 -33 49 -69 c28 -38 50 -72
50 -76 0 -15 -255 -238 -435 -381 -174 -138 -521 -388 -537 -388 -3 0 -74 75
-159 167 -85 92 -288 303 -451 468 l-297 301 117 64 c220 121 417 219 432 215
8 -2 67 -13 130 -25z m-1965 -90 c-70 -50 -128 -90 -130 -88 -1 2 -5 22 -9 44
l-6 42 113 40 c61 21 119 42 127 45 39 14 23 1 -95 -83z m279 -32 c-4 -7 -31
-51 -59 -98 -64 -104 -184 -317 -218 -385 l-25 -50 -26 86 c-14 47 -26 89 -26
94 0 9 350 365 358 365 2 0 0 -6 -4 -12z m7721 -300 c204 -207 339 -365 513
-594 89 -117 111 -154 75 -122 -24 21 -144 82 -240 122 l-78 33 -48 84 c-133
231 -298 475 -445 656 -42 53 -84 105 -92 117 -24 35 175 -152 315 -296z
m-8269 210 c4 -35 5 -65 3 -68 -2 -3 -73 -59 -157 -124 -337 -262 -763 -648
-992 -899 -63 -70 -116 -125 -117 -123 -5 4 63 196 104 295 65 159 135 306
160 335 109 130 415 357 668 496 75 41 302 148 317 149 4 1 10 -27 14 -61z
m1541 -225 c170 -159 793 -812 793 -831 0 -10 -284 -184 -488 -299 -176 -99
-576 -301 -749 -376 l-101 -45 -11 61 c-47 274 -81 659 -88 994 l-6 281 74 48
c87 56 451 274 457 274 2 0 56 -48 119 -107z m5885 -14 c203 -127 586 -404
575 -415 -1 -2 -52 2 -112 8 -64 6 -246 8 -432 6 -178 -3 -323 -3 -323 -1 0 2
15 41 34 86 42 102 90 253 107 335 7 34 15 62 17 62 3 0 63 -37 134 -81z
m-3591 -3 c414 -160 783 -333 1165 -547 172 -96 364 -213 367 -223 1 -5 -104
-43 -233 -86 -243 -80 -478 -164 -683 -245 -66 -25 -120 -45 -122 -43 -1 2
-42 73 -90 158 -161 286 -390 659 -539 880 -39 58 -73 109 -75 113 -2 6 36 57
44 57 1 0 75 -29 166 -64z m-3863 -45 c-388 -437 -548 -633 -764 -931 -155
-215 -344 -500 -439 -664 l-29 -50 -18 41 c-35 79 -48 155 -48 273 l0 115 122
140 c280 321 665 687 1033 981 150 120 180 143 183 144 2 0 -16 -22 -40 -49z
m3629 -161 c184 -276 593 -959 593 -989 0 -4 -82 -43 -182 -86 -200 -86 -561
-251 -689 -315 -44 -23 -84 -40 -88 -38 -5 2 -93 104 -196 228 -104 124 -255
301 -337 394 l-147 168 122 85 c276 193 562 419 756 597 46 42 87 73 91 69 4
-4 39 -55 77 -113z m-3481 -51 l37 -116 -58 -122 -58 -121 -96 -72 c-161 -120
-468 -368 -625 -504 -219 -190 -231 -200 -221 -184 89 154 474 662 700 925
112 130 278 315 281 312 2 -1 19 -55 40 -118z m634 -171 c0 -252 30 -618 79
-960 14 -104 25 -188 24 -188 -5 0 -228 449 -283 570 -132 288 -199 455 -187
467 18 17 351 242 360 243 4 0 7 -60 7 -132z m7035 -108 c159 -11 271 -24 370
-42 l60 -11 195 -193 195 -193 54 -128 c191 -456 323 -910 411 -1415 l22 -127
-79 -153 c-93 -179 -209 -369 -320 -521 l-78 -109 -175 -3 -175 -3 -90 136
c-50 75 -131 194 -182 265 -89 125 -93 133 -113 226 -168 759 -432 1523 -722
2088 -43 84 -78 154 -78 157 0 8 80 17 230 25 214 12 308 12 475 1z m-905 -44
c0 -9 -75 -133 -133 -221 -80 -120 -239 -332 -321 -427 l-67 -77 -151 119
c-83 66 -227 172 -319 237 -92 65 -168 121 -168 124 -1 4 9 9 22 12 12 2 101
25 197 50 245 64 472 113 700 152 193 33 240 39 240 31z m-6595 -123 c73 -176
216 -485 324 -701 l119 -239 -101 -37 c-147 -55 -322 -111 -482 -155 -151 -42
-421 -98 -430 -89 -7 7 63 243 136 463 64 191 177 483 254 656 41 92 52 108
93 136 26 18 50 33 53 33 3 0 19 -30 34 -67z m6847 -278 c204 -442 382 -944
508 -1430 23 -88 46 -173 51 -189 5 -16 8 -31 6 -32 -2 -2 -39 40 -84 94 -253
305 -603 667 -908 937 -93 83 -184 164 -203 181 l-35 30 45 51 c139 156 391
502 453 622 l17 34 45 -84 c25 -46 72 -142 105 -214z m1694 149 c189 -124 342
-318 409 -515 26 -76 65 -250 65 -290 0 -15 -29 20 -90 109 -133 197 -303 416
-432 559 -38 42 -138 215 -138 238 0 10 104 -46 186 -101z m-10217 -74 c-16
-52 -39 -140 -50 -194 -11 -55 -23 -105 -26 -110 -9 -15 -136 -176 -139 -176
-7 0 43 157 81 255 55 143 150 333 161 322 2 -1 -10 -45 -27 -97z m7034 -39
c236 -161 616 -448 617 -465 0 -15 -477 -486 -629 -620 -146 -128 -393 -333
-530 -439 l-75 -58 -48 98 c-220 454 -391 798 -476 957 -56 104 -102 193 -102
197 0 15 513 204 825 304 116 37 228 73 250 80 22 7 46 14 53 14 8 1 59 -30
115 -68z m-5731 42 c-48 -92 -220 -585 -297 -853 -47 -163 -56 -186 -77 -191
-12 -4 -86 -7 -163 -8 -155 -1 -264 14 -366 51 -72 27 -159 74 -159 87 0 18
325 321 569 531 161 138 483 399 494 399 4 1 4 -7 -1 -16z m2690 -210 c137
-157 439 -514 486 -575 12 -15 -5 -26 -175 -112 -370 -187 -852 -465 -1264
-728 l-195 -124 -68 115 c-38 64 -124 213 -191 331 l-123 215 -26 145 c-15 80
-28 151 -29 158 -1 7 57 38 138 74 327 144 827 411 1130 603 71 46 135 83 141
84 7 1 86 -83 176 -186z m1785 -440 c163 -307 423 -832 509 -1030 l14 -31
-146 -107 c-209 -153 -446 -316 -454 -313 -4 2 -88 111 -185 243 -214 289
-411 546 -636 829 l-168 211 75 38 c168 84 843 387 865 387 3 0 60 -102 126
-227z m4639 51 c51 -72 135 -196 184 -275 102 -162 98 -142 64 -324 -15 -76
-71 -285 -79 -293 -2 -3 -6 6 -9 19 -100 463 -149 644 -281 1024 l-7 20 17
-20 c9 -11 59 -79 111 -151z m-10460 -139 c8 -27 31 -78 50 -112 l34 -61 -112
-119 c-62 -65 -136 -144 -164 -175 l-52 -57 -6 62 c-4 34 -2 136 4 226 l10
163 98 135 97 135 12 -73 c7 -41 20 -96 29 -124z m-355 65 c-17 -90 -23 -103
-103 -230 -47 -74 -100 -163 -118 -197 -19 -34 -36 -61 -37 -59 -5 5 114 270
193 431 43 85 78 154 80 152 1 -1 -6 -45 -15 -97z m8404 -129 c184 -163 567
-548 726 -731 234 -269 415 -496 429 -538 20 -59 94 -491 86 -499 -2 -3 -68
-16 -147 -29 -591 -102 -1213 -294 -2005 -621 -7 -2 -17 12 -24 34 -49 148
-389 970 -538 1300 l-60 132 56 42 c338 254 812 673 1091 967 l145 151 55 -46
c31 -26 115 -99 186 -162z m2893 -108 c70 -160 176 -444 220 -588 63 -206 72
-238 69 -241 -1 -2 -24 52 -51 119 -55 140 -178 398 -254 536 l-52 94 0 108
c0 60 2 109 4 109 2 0 31 -62 64 -137z m-8640 -91 c72 -135 74 -140 123 -357
27 -121 72 -307 100 -414 27 -106 48 -195 47 -196 -2 -1 -59 -42 -128 -90
-504 -356 -1010 -776 -1412 -1174 l-158 -156 -1 80 c-9 754 54 1379 206 2022
l27 112 36 6 c122 19 356 69 471 100 146 40 452 140 546 179 33 14 62 25 65
25 3 0 38 -61 78 -137z m2494 -119 c253 -320 687 -890 807 -1061 28 -40 53
-19 -216 -186 -257 -161 -544 -329 -798 -468 -201 -109 -776 -401 -780 -396
-11 13 -321 495 -455 708 -176 279 -390 636 -390 650 0 5 21 22 48 38 26 16
110 70 187 119 199 128 507 312 751 449 187 105 660 353 675 354 3 0 80 -93
171 -207z m-4485 23 c128 -64 325 -100 521 -94 96 2 122 0 122 -10 0 -7 -11
-61 -25 -120 -54 -235 -107 -543 -140 -817 -38 -306 -47 -474 -51 -930 l-3
-460 -68 -82 c-37 -45 -70 -82 -73 -82 -6 0 -49 74 -162 279 -276 499 -481
1015 -588 1476 l-30 132 61 138 c66 152 215 456 279 572 l41 72 32 -24 c18
-13 55 -35 84 -50z m-712 -356 c-89 -100 -345 -459 -425 -597 -22 -37 -40 -64
-40 -60 0 14 90 266 135 380 53 131 187 408 260 538 88 154 79 159 86 -51 6
-181 5 -186 -16 -210z m11417 -133 c171 -399 292 -819 357 -1237 24 -153 44
-330 38 -336 -2 -2 -21 22 -42 53 -53 81 -205 230 -298 292 -75 50 -252 142
-295 153 -19 5 -22 13 -22 60 0 125 -44 567 -78 793 -7 43 -4 59 21 115 40 91
101 271 121 360 10 41 20 82 23 90 6 18 94 -154 175 -343z m-11195 137 c-43
-86 -44 -87 -50 -55 -6 29 -1 40 40 92 25 33 48 57 50 55 2 -2 -16 -43 -40
-92z m2879 -256 l73 -122 -31 -23 c-18 -13 -35 -23 -39 -23 -4 0 -17 37 -29
83 -12 45 -30 113 -41 151 -10 38 -16 66 -12 62 3 -3 39 -61 79 -128z m-3042
-4 l14 -79 -40 -105 c-171 -446 -291 -879 -359 -1300 -27 -167 -59 -424 -59
-480 0 -72 -11 -74 -58 -12 -89 121 -179 331 -189 444 -10 105 16 403 44 497
72 250 218 540 419 833 94 137 206 289 211 284 2 -2 10 -39 17 -82z m6834
-329 c191 -431 502 -1195 502 -1231 0 -14 -341 -167 -350 -157 -4 4 -54 78
-110 163 -129 193 -376 549 -565 812 l-144 201 149 103 c82 56 211 148 286
203 76 56 141 97 145 93 4 -4 43 -88 87 -187z m-3564 -53 c96 -166 436 -711
619 -992 l134 -205 -66 -32 c-76 -37 -359 -160 -380 -165 -9 -2 -33 51 -77
167 -90 237 -314 907 -369 1105 -25 91 -48 171 -50 177 -4 11 89 84 105 83 3
-1 40 -62 84 -138z m7650 -47 c20 -187 36 -377 36 -431 l0 -41 -72 18 c-40 10
-129 26 -198 35 -69 10 -126 18 -128 19 -1 1 44 72 101 157 57 85 135 209 173
276 38 66 69 120 70 119 1 -1 9 -69 18 -152z m-10799 -90 c140 -478 379 -1014
664 -1485 28 -47 51 -89 51 -93 0 -5 -38 -56 -85 -115 -46 -59 -108 -138 -137
-177 -53 -69 -54 -70 -98 -67 -25 2 -90 10 -145 18 -245 38 -452 113 -618 224
l-76 50 5 53 c42 513 109 896 233 1324 40 137 117 370 141 428 11 26 14 27 17
10 3 -11 24 -88 48 -170z m2885 -50 c56 -198 237 -745 338 -1020 45 -121 82
-226 84 -233 3 -15 -76 -49 -337 -146 -507 -188 -934 -313 -1370 -401 -170
-34 -438 -74 -447 -66 -7 7 -34 280 -44 453 l-7 108 88 92 c126 133 393 387
585 556 348 305 1040 837 1061 815 4 -4 26 -75 49 -158z m3166 -216 c181 -253
382 -540 542 -777 l151 -222 -229 -115 c-510 -255 -927 -492 -1377 -782 -106
-68 -198 -125 -205 -128 -12 -4 -148 183 -437 599 -188 271 -374 549 -375 561
0 7 94 60 224 125 497 248 992 527 1440 813 74 48 140 85 145 83 6 -1 60 -72
121 -157z m3643 52 c33 -51 58 -97 55 -102 -3 -5 -25 -9 -49 -9 l-44 0 -10 53
c-5 28 -12 70 -16 92 -3 22 -9 49 -12 60 -8 31 8 11 76 -94z m461 -227 c0 -8
-82 -104 -89 -104 -6 0 -61 95 -61 105 0 3 34 5 75 5 41 0 75 -3 75 -6z m-244
-117 l63 -106 -122 -133 -122 -132 -8 69 c-4 39 -16 142 -27 229 -11 87 -19
160 -18 162 4 4 150 22 162 20 5 -1 37 -50 72 -109z m600 98 c114 -15 231 -38
298 -57 l39 -12 -6 -311 c-6 -290 -11 -382 -38 -645 -21 -216 -73 -567 -84
-578 -3 -3 -5 2 -5 11 0 28 -119 385 -185 553 -84 215 -209 486 -306 667 -44
81 -79 151 -77 156 2 4 44 58 93 119 104 129 86 122 271 97z m-972 -52 c9 -43
35 -263 49 -416 l13 -139 -160 -153 c-357 -339 -694 -625 -1096 -932 -231
-176 -479 -353 -483 -345 -3 4 -26 77 -52 162 -67 221 -273 835 -348 1037
l-64 172 111 47 c541 227 1216 441 1701 538 331 66 322 65 329 29z m1686 -196
c209 -141 410 -440 410 -612 0 -212 -78 -577 -181 -843 -55 -141 -160 -360
-238 -497 -65 -112 -251 -397 -293 -449 l-24 -28 -13 158 c-11 140 -36 318
-72 524 -11 59 -9 79 19 220 89 447 137 896 149 1387 l6 272 81 -41 c44 -22
115 -63 156 -91z m-1067 -299 c193 -387 314 -696 426 -1093 76 -268 78 -281
51 -405 -30 -139 -107 -411 -168 -590 -66 -194 -153 -420 -161 -420 -4 0 -35
11 -68 25 -114 46 -251 67 -435 68 -93 0 -168 2 -168 4 0 2 11 68 25 147 85
494 122 999 112 1526 -4 173 -11 386 -17 473 l-11 159 98 101 c54 56 120 128
147 160 28 31 53 57 56 57 4 0 54 -96 113 -212z m-6081 -315 c129 -194 345
-506 547 -792 95 -134 174 -249 176 -255 2 -6 -69 -60 -157 -121 -89 -60 -239
-168 -335 -239 -96 -70 -176 -127 -177 -125 -7 8 -169 356 -252 540 -180 403
-387 910 -376 921 4 4 75 36 157 71 83 36 184 81 225 100 41 19 81 36 87 36 7
1 54 -61 105 -136z m3203 120 c102 -256 473 -1378 460 -1392 -6 -6 8 -28 -130
204 -167 283 -366 606 -522 848 -73 114 -133 211 -133 215 0 8 287 140 306
141 7 1 15 -7 19 -16z m2351 -533 c10 -549 -24 -1038 -106 -1501 -11 -63 -23
-133 -27 -156 -3 -24 -11 -47 -17 -51 -6 -5 -47 -14 -91 -21 -238 -39 -603
-149 -952 -290 l-53 -21 -49 98 c-27 53 -106 203 -176 332 -126 234 -127 236
-176 420 -28 102 -56 207 -64 233 l-14 48 66 47 c568 403 1115 848 1508 1225
l130 124 7 -61 c3 -33 10 -225 14 -426z m-2704 188 c206 -319 688 -1106 688
-1123 0 -14 -528 -353 -845 -542 -275 -165 -797 -453 -819 -453 -17 0 -954
1247 -943 1256 1 1 97 62 212 136 294 189 533 331 865 514 116 64 721 373 731
374 4 0 54 -73 111 -162z m-3502 -48 c128 -325 337 -803 509 -1166 44 -95 81
-176 81 -181 0 -6 -28 -32 -62 -59 -261 -202 -560 -466 -820 -722 l-217 -214
-153 138 c-338 306 -782 767 -1073 1114 -203 243 -492 617 -483 625 2 2 76 15
163 29 424 66 847 175 1351 346 170 58 465 167 579 214 33 13 63 21 66 18 3
-4 30 -68 59 -142z m-4157 55 c24 -33 67 -83 94 -112 l50 -51 5 -338 4 -337
-23 69 c-34 100 -98 333 -122 449 -23 111 -61 339 -61 369 0 23 -3 26 53 -49z
m1714 -82 c5 -65 8 -119 7 -121 -3 -5 -94 143 -94 153 0 9 62 83 71 84 3 1 10
-52 16 -116z m-55 -315 c-9 -4 -84 -7 -165 -7 -125 -1 -147 1 -140 13 4 8 45
62 91 120 l83 106 74 -112 c63 -96 72 -114 57 -120z m-1187 22 c44 -20 124
-52 178 -69 106 -34 328 -81 382 -81 19 0 36 -4 39 -9 3 -5 -7 -26 -22 -47
-29 -40 -127 -200 -177 -289 -41 -71 -139 -271 -185 -375 -36 -82 -134 -360
-142 -405 -4 -23 -55 59 -136 221 -48 95 -52 111 -72 250 -34 241 -50 465 -50
692 l0 212 53 -31 c28 -17 88 -48 132 -69z m1309 -285 c77 -541 265 -1230 485
-1777 112 -281 291 -656 427 -895 35 -62 64 -117 64 -121 0 -13 -165 -22 -390
-22 l-196 0 -114 92 c-557 444 -1004 923 -1350 1447 l-62 94 12 61 c18 91 83
296 133 421 99 244 232 491 395 733 l56 82 185 1 c102 1 218 4 256 8 39 4 73
4 76 1 3 -3 13 -59 23 -125z m-1701 -375 c25 -64 68 -167 96 -230 42 -92 59
-147 87 -283 41 -196 97 -404 160 -598 24 -75 44 -151 43 -170 -1 -31 -5 -25
-44 56 -155 328 -322 831 -409 1235 -25 117 -66 342 -65 357 0 4 19 -50 43
-122 24 -71 64 -182 89 -245z m12167 105 c-42 -189 -75 -308 -118 -435 -87
-253 -252 -607 -392 -840 -80 -133 -152 -242 -155 -238 -1 2 6 57 16 123 10
66 23 205 29 310 l12 190 83 110 c223 298 401 594 515 858 24 53 44 96 46 95
1 -2 -15 -80 -36 -173z m-10189 15 c389 -504 947 -1099 1421 -1515 l77 -68
-62 -70 c-216 -243 -445 -553 -567 -769 -17 -32 -33 -58 -35 -58 -12 0 -207
364 -307 575 -297 622 -527 1345 -643 2020 -8 47 -16 55 116 -115z m3715 -242
c201 -275 479 -646 646 -861 l138 -177 -178 -89 c-286 -143 -799 -378 -807
-369 -8 8 -211 369 -294 523 -50 94 -150 286 -221 427 l-130 257 77 59 c203
153 598 432 613 432 5 0 75 -91 156 -202z m5703 -243 c5 -60 13 -169 17 -240
l7 -131 -89 -105 c-49 -58 -114 -133 -146 -168 l-56 -62 -25 22 -26 21 21 52
c86 214 195 529 250 721 l22 80 7 -40 c4 -22 12 -89 18 -150z m-2946 -37 l106
-183 51 -210 c57 -235 123 -536 118 -540 -2 -2 -90 -46 -196 -99 -348 -174
-713 -383 -985 -564 -125 -82 -129 -84 -146 -66 -50 54 -274 321 -480 573
l-232 284 153 81 c445 238 916 519 1313 784 99 66 183 121 186 121 3 1 53 -81
112 -181z m-3594 -335 c153 -304 426 -807 498 -919 13 -21 8 -24 -216 -113
-218 -87 -548 -208 -673 -246 l-56 -18 -74 53 c-150 109 -477 368 -628 498
l-35 31 70 71 c114 117 394 379 547 512 132 115 438 368 445 368 1 0 56 -107
122 -237z m-4441 -109 c-3 -14 -7 -10 -16 16 -12 32 -11 34 4 19 9 -9 14 -25
12 -35z m10982 -289 c-14 -144 -57 -386 -71 -399 -5 -6 -9 5 -9 30 0 57 -35
187 -70 262 l-30 63 93 103 c107 119 105 121 87 -59z m-805 145 c104 -12 188
-32 263 -61 28 -12 52 -22 52 -23 0 -7 -113 -254 -149 -323 -43 -86 -51 -95
-226 -248 -182 -159 -603 -491 -611 -482 -3 3 9 40 27 83 119 297 207 598 304
1031 5 19 13 22 68 26 131 7 185 7 272 -3z m-9930 -205 c278 -380 633 -760
1010 -1082 44 -37 100 -85 125 -106 l45 -38 -60 6 c-262 29 -568 132 -763 258
-65 42 -73 52 -134 158 -115 200 -223 430 -322 683 -46 119 -46 119 -40 208 4
49 10 85 15 81 4 -4 60 -80 124 -168z m9440 143 c-39 -190 -152 -586 -215
-758 -18 -47 -39 -105 -48 -130 -8 -25 -45 -115 -82 -200 -65 -151 -68 -156
-120 -192 -29 -21 -57 -38 -61 -38 -4 0 -13 17 -20 38 -35 108 -224 533 -393
884 -31 64 -56 118 -56 121 0 13 394 157 567 207 131 39 379 98 411 99 21 1
23 -2 17 -31z m-1196 -199 c1 -3 -10 -11 -23 -17 -24 -11 -25 -10 -36 46 -6
31 -16 73 -21 92 -5 19 -9 40 -8 45 0 10 87 -154 88 -166z m2120 65 c-15 -18
-22 -13 -13 10 3 9 10 13 16 10 5 -3 4 -12 -3 -20z m-4244 -359 c103 -126 262
-317 353 -423 90 -107 161 -197 156 -201 -5 -4 -78 -56 -163 -117 -183 -129
-432 -327 -590 -468 -62 -55 -130 -115 -151 -133 l-37 -32 -108 147 c-179 245
-656 975 -668 1023 -1 5 72 42 163 83 221 98 492 227 675 319 l150 75 17 -21
c9 -12 100 -125 203 -252z m4363 185 c33 -92 45 -198 39 -346 l-5 -135 -48
-52 c-381 -419 -769 -738 -1258 -1034 l-89 -54 136 143 c346 366 616 737 871
1202 29 52 72 101 180 206 77 76 144 135 147 132 4 -4 16 -32 27 -62z m-2107
-147 c173 -360 281 -603 369 -828 l47 -120 -51 -34 c-28 -19 -121 -79 -206
-133 l-155 -97 -7 112 c-28 434 -75 820 -143 1162 -6 27 -3 31 32 47 21 9 41
17 45 17 5 1 35 -56 69 -126z m-281 25 c0 -2 11 -65 25 -141 62 -347 102 -705
111 -997 l6 -185 -104 -59 c-56 -33 -172 -97 -256 -143 l-154 -84 -86 80
c-131 119 -488 485 -650 664 l-142 159 78 52 c227 154 593 367 917 533 217
111 255 129 255 121z m-5093 -145 c102 -87 342 -279 473 -378 l104 -79 -32
-13 c-96 -39 -608 -175 -860 -227 -119 -25 -354 -66 -379 -66 -15 0 3 33 113
202 103 159 232 329 360 477 55 62 105 122 113 132 7 11 17 19 21 19 5 0 43
-30 87 -67z m1857 -306 c170 -283 454 -712 634 -955 45 -62 85 -119 88 -125 2
-7 -6 -22 -18 -34 l-23 -21 -190 87 c-323 147 -662 329 -980 526 -117 72 -441
289 -463 309 -10 10 35 29 215 95 125 45 320 120 433 165 113 46 210 84 215
85 6 0 46 -59 89 -132z m4980 71 c-160 -267 -436 -624 -664 -861 l-106 -111
-30 95 -31 94 63 127 63 126 123 88 c143 103 377 282 498 383 90 74 96 78 84
59z m570 -325 c-104 -180 -206 -315 -354 -466 -135 -140 -251 -236 -410 -342
-123 -82 -469 -260 -481 -248 -4 5 -10 33 -14 63 l-6 55 78 45 c359 204 772
515 1073 808 74 72 137 131 138 132 2 0 -8 -21 -24 -47z m-6585 -71 c228 -163
496 -334 761 -487 169 -97 579 -307 725 -371 61 -26 114 -51 119 -55 5 -4 -18
-39 -51 -76 -190 -217 -329 -430 -399 -611 -22 -57 -32 -72 -49 -72 -11 0 -83
11 -160 25 -643 113 -1201 286 -1827 567 l-157 70 -109 137 c-165 207 -433
585 -421 594 2 2 62 11 133 21 297 39 802 160 1211 290 61 19 114 35 119 35 5
1 52 -30 105 -67z m3077 -199 c93 -104 285 -304 427 -446 142 -143 257 -261
255 -263 -8 -7 -429 -210 -553 -266 l-120 -55 -135 28 c-240 48 -433 100 -707
190 l-152 50 -71 92 -71 92 78 73 c126 119 375 325 558 461 227 170 309 230
316 230 3 1 82 -83 175 -186z m-6181 -14 c179 -53 328 -80 546 -98 l116 -10
129 -94 c97 -71 383 -265 401 -272 2 -1 -4 -35 -12 -76 -22 -109 -30 -348 -16
-449 17 -112 53 -232 99 -329 21 -45 37 -81 34 -81 -11 0 -342 231 -437 305
-378 294 -774 704 -1032 1068 -44 62 -83 118 -87 124 -4 7 30 -3 76 -23 45
-19 128 -49 183 -65z m1306 -151 c-15 -35 -36 -88 -46 -118 -10 -30 -19 -58
-22 -62 -4 -8 -40 14 -212 132 l-124 85 159 7 c87 4 170 9 184 11 14 2 39 5
57 6 l32 1 -28 -62z m6779 -95 c-77 -127 -182 -283 -268 -398 -75 -99 -204
-256 -208 -252 -1 1 4 40 11 87 8 46 19 155 26 242 l12 157 111 68 c61 37 165
102 231 145 110 71 121 76 129 58 6 -14 -4 -39 -44 -107z m-6555 -66 c44 -67
115 -168 157 -224 43 -57 75 -103 71 -103 -8 0 -206 110 -310 172 -46 27 -83
56 -83 64 0 19 73 214 79 213 4 0 42 -55 86 -122z m6688 -100 l16 -58 -44 -40
c-58 -53 -245 -209 -252 -209 -3 0 11 21 31 48 20 26 78 111 128 188 51 78 96
139 99 135 3 -3 13 -32 22 -64z m-707 -129 c-3 -24 -8 -74 -11 -113 -7 -76
-42 -293 -51 -307 -3 -5 -36 13 -74 39 -83 58 -259 196 -260 203 0 3 49 31
108 62 59 32 145 80 192 107 47 28 89 50 93 50 5 1 6 -18 3 -41z m-6038 -102
c81 -46 231 -127 333 -180 l186 -96 85 -98 c243 -276 628 -610 942 -818 l89
-59 -69 -8 c-109 -13 -583 -1 -699 17 -121 19 -281 80 -540 205 -167 81 -184
92 -239 152 -109 118 -184 251 -232 414 -21 73 -27 118 -31 236 -5 131 9 319
24 319 3 0 71 -38 151 -84z m6828 -132 c3 -25 3 -49 -2 -54 -18 -17 -433 -135
-442 -125 -2 2 18 16 44 30 58 32 376 191 386 193 4 1 10 -19 14 -44z m-3108
-185 c44 -53 131 -151 193 -218 61 -67 110 -123 108 -125 -8 -7 -244 -92 -438
-157 l-204 -69 -176 15 c-275 24 -301 27 -301 39 1 22 59 148 106 229 58 98
193 279 298 399 l76 86 129 -51 128 -52 81 -96z m3572 161 c-55 -48 -305 -240
-314 -240 -12 0 -6 108 7 117 6 5 48 24 92 42 44 17 116 51 160 75 101 55 111
56 55 6z m-1688 -68 c51 -43 124 -100 162 -127 62 -44 67 -49 47 -57 -69 -25
-697 -27 -797 -2 -22 6 14 27 228 133 139 70 256 128 260 129 5 1 50 -33 100
-76z m-1544 -136 c81 -24 209 -58 285 -76 76 -18 134 -36 130 -40 -4 -4 -75
-35 -156 -69 l-148 -61 -87 93 c-141 148 -185 197 -178 197 4 0 73 -20 154
-44z m2776 -33 c-11 -97 -28 -127 -98 -172 -56 -37 -69 -41 -125 -41 -71 0
-199 39 -303 91 l-63 32 113 23 c132 27 313 75 392 103 90 32 93 31 84 -36z
m-5878 -74 c500 -209 1137 -390 1669 -474 55 -9 100 -17 100 -18 1 -1 -1 -27
-3 -57 l-4 -55 -76 -18 c-268 -64 -672 -137 -751 -137 -76 0 -479 279 -765
531 -119 105 -286 269 -274 269 3 0 50 -19 104 -41z m3941 -70 c106 -14 244
-23 418 -28 l260 -6 -125 -42 c-265 -89 -512 -151 -787 -197 -262 -44 -227
-48 -312 31 l-74 68 153 64 c84 35 185 78 224 96 39 19 74 34 78 34 4 1 78 -8
165 -20z m1298 -75 c66 -34 155 -74 198 -89 42 -15 77 -29 77 -30 0 -3 -30
-21 -170 -103 -115 -67 -432 -233 -428 -224 74 138 164 371 183 475 4 21 10
37 14 35 3 -2 60 -31 126 -64z m-382 -241 c-131 -292 -302 -432 -530 -433
-102 0 -103 6 -10 69 158 108 364 274 507 408 41 39 76 70 78 68 2 -2 -19 -52
-45 -112z m-1629 38 l47 -48 -29 -6 c-16 -3 -94 -9 -173 -12 -79 -3 -162 -8
-184 -11 -21 -3 -36 -2 -32 3 6 6 298 118 317 122 3 1 27 -21 54 -48z m1396
15 c0 -17 -299 -248 -459 -354 l-114 -75 -64 32 -65 32 259 129 c142 71 299
154 348 184 100 60 95 57 95 52z m-460 -91 c-69 -35 -186 -91 -261 -125 l-137
-62 -73 54 -74 53 60 12 c33 6 130 26 215 42 85 17 202 44 260 60 58 16 112
29 120 29 8 1 -41 -28 -110 -63z m-2157 -95 c54 0 37 -13 -40 -32 l-63 -16 0
30 c0 29 2 30 31 24 17 -3 50 -6 72 -6z m1515 -82 l90 -73 -71 -28 c-318 -122
-761 -242 -1106 -298 l-133 -21 -69 27 c-133 52 -244 143 -291 240 -12 24 -20
46 -17 48 2 2 54 16 114 32 61 15 175 47 254 71 l144 43 283 0 c251 1 602 16
613 27 2 2 25 4 51 4 43 0 54 -6 138 -72z m-1710 -200 c37 -80 99 -158 162
-205 48 -36 49 -38 28 -46 -13 -5 -117 -9 -233 -10 l-210 -2 -117 47 c-149 59
-308 131 -308 139 0 4 24 9 53 13 89 12 565 112 594 125 0 1 14 -27 31 -61z
m2018 -4 c35 -20 64 -38 64 -41 0 -2 -64 -35 -142 -73 -161 -77 -317 -137
-470 -181 l-103 -30 -240 11 c-132 6 -244 15 -250 21 -5 5 -1 9 12 9 87 0 730
192 953 284 47 19 91 35 98 36 8 0 43 -16 78 -36z m-2806 -174 c77 -39 140
-72 140 -74 0 -3 -15 -3 -32 0 -18 2 -107 13 -198 24 -91 11 -239 34 -330 52
l-165 32 85 8 c47 4 130 11 185 16 176 16 163 18 315 -58z m3092 51 c6 -5
-104 -46 -212 -78 -8 -3 23 18 70 45 81 47 117 56 142 33z m-1752 -256 l95
-26 -125 6 c-69 2 -150 8 -180 12 l-55 7 85 12 c47 6 85 12 85 13 0 0 43 -10
95 -24z m-756 -34 c3 -5 -16 -6 -42 -4 -69 7 -74 11 -15 12 28 1 54 -3 57 -8z"/>
</g>
</svg>
